<?xml version="1.0" encoding="utf-8"?>
<!-- Generator: Adobe Illustrator 19.2.1, SVG Export Plug-In . SVG Version: 6.00 Build 0)  -->
<!DOCTYPE svg PUBLIC "-//W3C//DTD SVG 1.1//EN" "http://www.w3.org/Graphics/SVG/1.1/DTD/svg11.dtd">
<svg version="1.1" id="_x32_" xmlns="http://www.w3.org/2000/svg" xmlns:xlink="http://www.w3.org/1999/xlink" x="0px" y="0px"
	 viewBox="0 0 512 512" style="enable-background:new 0 0 512 512;" xml:space="preserve">
<style type="text/css">
	.st0{fill:#011D43;}
</style>
<g>
	<path class="st0" d="M230.8,256c0-63.7-51.7-115.4-115.4-115.4C51.7,140.6,0,192.3,0,256c0,63.7,51.7,115.4,115.4,115.4
		C179.1,371.4,230.8,319.7,230.8,256z M150.2,285.7c-1.9,3.7-4.6,6.7-8,9.2c-3.4,2.5-7.5,4.3-12.2,5.6c-2.1,0.5-4.2,0.9-6.4,1.2
		v13.8h-16.4v-13.5c-4.7-0.4-9.1-1.1-13.3-2.3c-6.4-1.8-14.9-8.9-14.9-8.9c-0.7-0.4-1.2-1.2-1.3-2c-0.1-0.8,0.2-1.7,0.8-2.2l8.2-8.2
		c0.9-0.9,2.3-1,3.3-0.4c0,0,6.2,5.3,10.8,6.6c4.7,1.3,9.3,1.9,13.9,1.9c5.8,0,10.6-1,14.5-3.1c3.8-2.1,5.7-5.3,5.7-9.7
		c0-3.2-0.9-5.6-2.8-7.5c-1.9-1.8-5-3-9.5-3.5l-14.8-1.3c-8.7-0.8-15.5-3.3-20.2-7.3c-4.8-4-7.1-10.1-7.1-18.2c0-4.5,0.9-8.5,2.7-12
		c1.8-3.5,4.3-6.5,7.5-8.9s6.8-4.2,11-5.5c1.8-0.5,3.6-0.8,5.4-1.1v-11.9h16.4v11.6c3.8,0.4,7.5,1,10.9,1.9
		c5.8,1.6,11.8,6.3,11.8,6.3c0.8,0.4,1.3,1.1,1.4,2s-0.2,1.7-0.7,2.3l-7.7,7.8c-0.8,0.8-2.1,1-3.2,0.5c0,0-4.6-3.2-8.5-4.3
		c-3.9-1-8.1-1.5-12.5-1.5c-5.7,0-9.9,1.1-12.6,3.3s-4.1,5-4.1,8.5c0,3.2,0.9,5.6,2.9,7.3c1.9,1.7,5.2,2.8,9.8,3.3l12.9,1.1
		c9.6,0.8,16.8,3.4,21.7,7.6c4.9,4.3,7.4,10.5,7.4,18.6C153.1,277.8,152.2,282,150.2,285.7z"/>
	<path class="st0" d="M155.9,121.7c27.3-21.4,61.5-34.1,98.9-34.2c0.5,0,0.9,0,1.4,0l-12,36.4L364,94.7L281.6,11l-14.7,44.4
		c-4-0.2-8-0.4-12-0.4c-53.2,0-101.6,21.6-136.4,56.5c-1.2,1.2-2.4,2.5-3.6,3.8c0.2,0,0.4,0,0.6,0
		C129.5,115.4,143.2,117.6,155.9,121.7z"/>
	<path class="st0" d="M356.1,390.3c-27.3,21.4-61.5,34.1-98.9,34.2c-0.5,0-0.9,0-1.4,0l12-36.4L148,417.3l82.5,83.7l14.7-44.5
		c4,0.2,8,0.4,12,0.4c53.2,0,101.6-21.6,136.4-56.5c1.2-1.2,2.4-2.5,3.6-3.8c-0.2,0-0.4,0-0.6,0
		C382.5,396.6,368.8,394.4,356.1,390.3z"/>
	<polygon class="st0" points="430.2,213.8 415.7,213.8 396.6,243.5 377.6,213.8 363.1,213.8 377.6,236.5 360.5,236.5 360.5,248.5 
		385.4,248.5 388.1,252.7 388.1,262.7 360.5,262.7 360.5,262.7 360.5,274.8 360.5,276.8 388.1,276.8 388.1,298.2 405.2,298.2 
		405.2,276.8 432.8,276.8 432.8,274.8 432.8,262.7 432.8,262.7 405.2,262.7 405.2,252.7 407.8,248.5 432.8,248.5 432.8,236.5 
		415.6,236.5 	"/>
	<path class="st0" d="M396.6,140.6c-63.8,0-115.4,51.7-115.4,115.4c0,63.7,51.7,115.4,115.4,115.4c63.7,0,115.4-51.7,115.4-115.4
		C512,192.3,460.3,140.6,396.6,140.6z M396.6,342.5c-47.7,0-86.5-38.8-86.5-86.5s38.8-86.5,86.5-86.5s86.5,38.8,86.5,86.5
		S444.3,342.5,396.6,342.5z"/>
</g>
</svg>
